<svg xmlns="http://www.w3.org/2000/svg" xmlns:xlink="http://www.w3.org/1999/xlink" width="1680" height="1080" viewBox="0 0 1680 1080" font-family="Segoe UI, Arial, sans-serif">
<title>FinSight AI Technical Architecture</title>
<rect x="0" y="0" width="1680" height="1080" fill="#ffffff"/>
<defs>
  <marker id="arrowhead" markerWidth="8" markerHeight="8" refX="6.5" refY="3" orient="auto" markerUnits="userSpaceOnUse">
    <path d="M0,0 L7,3 L0,6 z" fill="#111111"/>
  </marker>
</defs>
<text x="840.0" y="40" text-anchor="middle" font-family="Segoe UI, Arial, sans-serif" font-size="25" font-weight="700" fill="#1a1a1a">FinSight AI — Technical Architecture</text>
<text x="840.0" y="65" text-anchor="middle" font-family="Segoe UI, Arial, sans-serif" font-size="13.5" font-weight="400" fill="#6b6b6b">Live deployment: AWS EC2 (ap-south-1) · Vercel (frontend) · Azure SQL (relational store, cross-cloud)</text>
<rect x="60" y="100" width="300" height="300" rx="14" fill="none" fill-opacity="1" stroke="#c9c9c9" stroke-width="1.4" stroke-dasharray="7,5"/>
<text x="210" y="122" text-anchor="middle" font-family="Segoe UI, Arial, sans-serif" font-size="11.5" font-weight="600" fill="#555555">CI / CD  (GitHub Actions)</text>
<g transform="translate(123,168) scale(0.1719)"><path fill="#161614" d="M128.001 0C57.317 0 0 57.307 0 128.001c0 56.554 36.676 104.535 87.535 121.46c6.397 1.185 8.746-2.777 8.746-6.158c0-3.052-.12-13.135-.174-23.83c-35.61 7.742-43.124-15.103-43.124-15.103c-5.823-14.795-14.213-18.73-14.213-18.73c-11.613-7.944.876-7.78.876-7.78c12.853.902 19.621 13.19 19.621 13.19c11.417 19.568 29.945 13.911 37.249 10.64c1.149-8.272 4.466-13.92 8.127-17.116c-28.431-3.236-58.318-14.212-58.318-63.258c0-13.975 5-25.394 13.188-34.358c-1.329-3.224-5.71-16.242 1.24-33.874c0 0 10.749-3.44 35.21 13.121c10.21-2.836 21.16-4.258 32.038-4.307c10.878.049 21.837 1.47 32.066 4.307c24.431-16.56 35.165-13.12 35.165-13.12c6.967 17.63 2.584 30.65 1.255 33.873c8.207 8.964 13.173 20.383 13.173 34.358c0 49.163-29.944 59.988-58.447 63.157c4.591 3.972 8.682 11.762 8.682 23.704c0 17.126-.148 30.91-.148 35.126c0 3.407 2.304 7.398 8.792 6.14C219.37 232.5 256 184.537 256 128.002C256 57.307 198.691 0 128.001 0m-80.06 182.34c-.282.636-1.283.827-2.194.39c-.929-.417-1.45-1.284-1.15-1.922c.276-.655 1.279-.838 2.205-.399c.93.418 1.46 1.293 1.139 1.931m6.296 5.618c-.61.566-1.804.303-2.614-.591c-.837-.892-.994-2.086-.375-2.66c.63-.566 1.787-.301 2.626.591c.838.903 1 2.088.363 2.66m4.32 7.188c-.785.545-2.067.034-2.86-1.104c-.784-1.138-.784-2.503.017-3.05c.795-.547 2.058-.055 2.861 1.075c.782 1.157.782 2.522-.019 3.08m7.304 8.325c-.701.774-2.196.566-3.29-.49c-1.119-1.032-1.43-2.496-.726-3.27c.71-.776 2.213-.558 3.315.49c1.11 1.03 1.45 2.505.701 3.27m9.442 2.81c-.31 1.003-1.75 1.459-3.199 1.033c-1.448-.439-2.395-1.613-2.103-2.626c.301-1.01 1.747-1.484 3.207-1.028c1.446.436 2.396 1.602 2.095 2.622m10.744 1.193c.036 1.055-1.193 1.93-2.715 1.95c-1.53.034-2.769-.82-2.786-1.86c0-1.065 1.202-1.932 2.733-1.958c1.522-.03 2.768.818 2.768 1.868m10.555-.405c.182 1.03-.875 2.088-2.387 2.37c-1.485.271-2.861-.365-3.05-1.386c-.184-1.056.893-2.114 2.376-2.387c1.514-.263 2.868.356 3.061 1.403"/></g>
<text x="145" y="227" text-anchor="middle" font-family="Segoe UI, Arial, sans-serif" font-size="12" font-weight="600" fill="#1a1a1a">GitHub</text>
<text x="145" y="242" text-anchor="middle" font-family="Segoe UI, Arial, sans-serif" font-size="12" font-weight="600" fill="#1a1a1a">adarsh branch (prod)</text>
<g transform="translate(258,168) scale(0.1719)"><path fill="#4a7ebf" d="M53.604 0c29.604 0 53.604 23.992 53.604 53.59c0 29.09-23.189 52.75-52.093 53.553c0 2.461.109 7.111 1.501 9.92c1.933 3.893 13.525 11.144 24.892 11.144h4.084c2.567-18.271 18.257-32.332 37.24-32.332c18.906 0 34.55 13.946 37.211 32.11h21.13c2.661-18.164 18.304-32.11 37.21-32.11c20.775 0 37.617 16.837 37.617 37.607s-16.842 37.606-37.617 37.606c-18.906 0-34.55-13.948-37.21-32.11h-21.129c-2.66 18.162-18.305 32.11-37.212 32.11c-18.87 0-34.494-13.893-37.199-32.007l-4.515.135c-7.435-.056-15.29-2.042-21.598-6.328c-1.72-1.169-3.415-2.397-5.182-3.56v2.441c-.01.79-.153 12.657-.164 25.833v2.79c.005 8.641.073 17.545.277 24.04c.446 14.246 12.034 25.745 24.822 28.436c1.663.35 4.52.394 6.321.238c2.571-18.264 18.26-32.32 37.238-32.32c20.774 0 37.616 16.838 37.616 37.607c0 20.77-16.842 37.607-37.616 37.607c-18.769 0-34.323-13.744-37.153-31.714h-3.254c-24.436-1.334-39.628-23.746-39.363-41.923c.334-22.877.082-45.764.079-68.646v-7.565C18.546 101.286 0 79.606 0 53.591C0 23.992 23.999 0 53.604 0m69.228 191.78c-14.701 0-26.62 11.915-26.62 26.613s11.919 26.614 26.62 26.614s26.62-11.915 26.62-26.614c0-14.698-11.918-26.614-26.62-26.614m0-84.912c-14.701 0-26.62 11.915-26.62 26.614c0 14.697 11.919 26.613 26.62 26.613s26.62-11.916 26.62-26.613c0-14.699-11.918-26.614-26.62-26.614m95.551 0c-14.702 0-26.62 11.915-26.62 26.614c0 14.697 11.918 26.613 26.62 26.613s26.621-11.916 26.621-26.613c0-14.699-11.918-26.614-26.62-26.614m15.161 15.408a5.496 5.496 0 0 1 .17 7.606l-.16.168l-16.31 16.345a5.5 5.5 0 0 1-7.576.198l-.172-.163l-7.985-7.86a5.496 5.496 0 0 1-.06-7.773a5.5 5.5 0 0 1 7.606-.22l.168.16l4.092 4.027l12.452-12.477a5.5 5.5 0 0 1 7.775-.01m-95.99-.08a5.497 5.497 0 0 1 .17 7.606l-.16.168l-16.31 16.344a5.5 5.5 0 0 1-7.576.198l-.172-.163l-7.985-7.86a5.498 5.498 0 0 1 7.546-7.992l.168.16l4.093 4.027l12.451-12.478a5.5 5.5 0 0 1 7.775-.01M53.604 10.993c-23.532 0-42.608 19.07-42.608 42.598c0 23.525 19.076 42.597 42.608 42.597s42.608-19.072 42.608-42.597c0-23.527-19.076-42.598-42.608-42.598M49.171 28.13A744 744 0 0 1 75.7 44.841c7.308 4.82 7.29 13.563-.1 18.394a609 609 0 0 1-27.058 16.712c-7.455 4.34-15.8-.65-16.002-9.344c-.13-5.602-.024-11.21-.032-16.817c-.006-5.454-.113-10.911.019-16.363c.222-9.248 8.736-14.066 16.643-9.293m-5.91 8.872v3.868l-.001 5.674l-.001 3.71v5.482c0 4.23.002 8.394.01 12.557c.003 1.96 1.023 1.88 2.343 1.063q11.408-7.071 22.827-14.127c1.258-.776 1.294-1.587.06-2.365c-8.154-5.139-16.318-10.26-25.238-15.862"/><path fill="#85b3df" d="M133.227 223.88a5.497 5.497 0 1 0 .001-10.996a5.497 5.497 0 0 0 0 10.995m-21.049.001a5.497 5.497 0 1 0 0-10.996a5.497 5.497 0 0 0 0 10.995m106.205 21.128c-14.702 0-26.62-11.915-26.62-26.614c0-14.698 11.918-26.614 26.62-26.614c14.701 0 26.62 11.916 26.62 26.614s-11.919 26.614-26.62 26.614m0-64.22c-18.906 0-34.55 13.947-37.211 32.11h-6.153c-2.685 0-4.864 2.461-4.864 5.496s2.179 5.497 4.864 5.497h6.153c2.66 18.163 18.305 32.11 37.21 32.11C239.159 256 256 239.162 256 218.393c0-20.77-16.842-37.607-37.616-37.607"/></g>
<text x="280" y="227" text-anchor="middle" font-family="Segoe UI, Arial, sans-serif" font-size="12" font-weight="600" fill="#1a1a1a">GitHub Actions</text>
<text x="280" y="242" text-anchor="middle" font-family="Segoe UI, Arial, sans-serif" font-size="12" font-weight="600" fill="#1a1a1a">ci.yml — lint · test · build</text>
<g transform="translate(123,300.1) scale(0.1719)"><path fill="#2396ed" d="M250.716 70.497c-5.765-4-18.976-5.5-29.304-3.5c-1.2-10-6.725-18.749-16.333-26.499l-5.524-4l-3.844 5.75c-4.803 7.5-7.205 18-6.485 28c.24 3.499 1.441 9.749 5.044 15.249c-3.362 2-10.328 4.5-19.455 4.5H1.155l-.48 2c-1.682 9.999-1.682 41.248 18.014 65.247c14.892 18.249 36.99 27.499 66.053 27.499c62.93 0 109.528-30.25 131.386-84.997c8.647.25 27.142 0 36.51-18.75c.24-.5.72-1.5 2.401-5.249l.961-2zM139.986 0h-26.42v24.999h26.42zm0 29.999h-26.42v24.999h26.42zm-31.225 0h-26.42v24.999h26.42zm-31.225 0H51.115v24.999h26.421zM46.311 59.998H19.89v24.999h26.42zm31.225 0H51.115v24.999h26.421zm31.225 0h-26.42v24.999h26.42zm31.226 0h-26.422v24.999h26.422zm31.225 0H144.79v24.999h26.422z"/></g>
<text x="145" y="359" text-anchor="middle" font-family="Segoe UI, Arial, sans-serif" font-size="12" font-weight="600" fill="#1a1a1a">Docker Hub</text>
<text x="145" y="374" text-anchor="middle" font-family="Segoe UI, Arial, sans-serif" font-size="12" font-weight="600" fill="#1a1a1a">3 Docker images</text>
<g transform="translate(258,300) scale(1.8333)"><path fill="currentColor" d="M12,17A2,2 0 0,0 14,15C14,13.89 13.1,13 12,13A2,2 0 0,0 10,15A2,2 0 0,0 12,17M18,8A2,2 0 0,1 20,10V20A2,2 0 0,1 18,22H6A2,2 0 0,1 4,20V10C4,8.89 4.9,8 6,8H7V6A5,5 0 0,1 12,1A5,5 0 0,1 17,6V8H18M12,3A3,3 0 0,0 9,6V8H15V6A3,3 0 0,0 12,3Z"/></g>
<text x="280" y="359" text-anchor="middle" font-family="Segoe UI, Arial, sans-serif" font-size="12" font-weight="600" fill="#1a1a1a">cd.yml</text>
<text x="280" y="374" text-anchor="middle" font-family="Segoe UI, Arial, sans-serif" font-size="12" font-weight="600" fill="#1a1a1a">human-approved</text>
<line x1="183" y1="190" x2="242" y2="190" stroke="#111111" stroke-width="1.3" marker-end="url(#arrowhead)"/>
<line x1="280" y1="250" x2="177.8" y2="300.9" stroke="#111111" stroke-width="1.3" marker-end="url(#arrowhead)"/>
<text x="200" y="279" text-anchor="middle" font-family="Segoe UI, Arial, sans-serif" font-size="10" font-weight="400" fill="#555555">build &amp; push</text>
<line x1="280" y1="250" x2="280" y2="282" stroke="#111111" stroke-width="1.3" marker-end="url(#arrowhead)"/>
<text x="315" y="258.5" text-anchor="start" font-family="Segoe UI, Arial, sans-serif" font-size="10" font-weight="400" fill="#555555">workflow_run</text>
<text x="315" y="271.5" text-anchor="start" font-family="Segoe UI, Arial, sans-serif" font-size="10" font-weight="400" fill="#555555">→ cd.yml</text>
<g transform="translate(123,538) scale(1.8333)"><path fill="currentColor" d="M21 16H3V4h18m0-2H3c-1.11 0-2 .89-2 2v12a2 2 0 0 0 2 2h7v2H8v2h8v-2h-2v-2h7a2 2 0 0 0 2-2V4a2 2 0 0 0-2-2"/></g>
<text x="145" y="597" text-anchor="middle" font-family="Segoe UI, Arial, sans-serif" font-size="12" font-weight="600" fill="#1a1a1a">Browser</text>
<g transform="translate(283,540.9) scale(0.1719)"><path d="m128 0l128 221.705H0z"/></g>
<text x="305" y="599.9" text-anchor="middle" font-family="Segoe UI, Arial, sans-serif" font-size="12" font-weight="600" fill="#1a1a1a">Vercel</text>
<text x="305" y="614.9" text-anchor="middle" font-family="Segoe UI, Arial, sans-serif" font-size="12" font-weight="600" fill="#1a1a1a">Next.js frontend</text>
<line x1="183" y1="560" x2="267" y2="560" stroke="#111111" stroke-width="1.3" marker-end="url(#arrowhead)"/>
<text x="225" y="540" text-anchor="middle" font-family="Segoe UI, Arial, sans-serif" font-size="10" font-weight="400" fill="#555555">HTTPS</text>
<line x1="360" y1="250" x2="420" y2="250" stroke="#111111" stroke-width="1.3" stroke-dasharray="5,4" marker-end="url(#arrowhead)"/>
<rect x="420" y="100" width="880" height="720" rx="14" fill="none" fill-opacity="1" stroke="#FF9900" stroke-width="1.8" stroke-dasharray="7,5"/>
<text x="438" y="88" text-anchor="start" font-family="Segoe UI, Arial, sans-serif" font-size="12" font-weight="700" fill="#FF9900">AWS · ap-south-1</text>
<g transform="translate(538,168) scale(0.1719)"><defs><linearGradient id="ssm_8_SVGyDrnJbhE" x1="0%" x2="100%" y1="100%" y2="0%"><stop offset="0%" stop-color="#b0084d"/><stop offset="100%" stop-color="#ff4f8b"/></linearGradient></defs><path fill="url(#ssm_8_SVGyDrnJbhE)" d="M0 0h256v256H0z"/><path fill="#fff" d="M150.4 175.994H192v6.4h-41.6v6.402H144v-6.401h-12.8v-6.401H144v-3.2h6.4zm12.8-19.203H192v6.4h-28.8v6.402h-6.4v-6.401h-25.6v-6.401h25.6v-3.2h6.4zm16-19.203H192v6.401h-12.8v6.401h-6.4v-6.401h-41.6v-6.4h41.6v-3.201h6.4zm-112 12.802H96v6.4H67.2c-4.016 0-8.307-1.206-11.478-3.225c-6.464-4.094-17.322-13.676-17.322-31.832c0-22.02 14.928-30.1 23.616-32.933l-.173-2.932c-.006-18.137 11.994-36.735 27.904-43.446c18.634-7.921 38.368-3.998 52.797 10.497c4.477 4.484 8.163 9.954 10.986 16.3c5.667-4.72 13.382-6.336 20.55-3.984c9.11 2.99 14.78 11.41 15.446 22.746c9.082 2.173 28.074 9.646 28.074 34.04c0 .912-.035 1.792-.07 2.634l-6.397-.17c.032-.854.067-1.642.067-2.464c0-21.549-17.782-26.96-25.427-28.286a3.2 3.2 0 0 1-2.112-1.37a3.2 3.2 0 0 1-.474-2.451c-.093-9.54-4.128-16.31-11.104-18.598c-6.25-2.058-13.117.211-17.094 5.626a3.18 3.18 0 0 1-3.047 1.268a3.19 3.19 0 0 1-2.547-2.094c-2.665-7.498-6.496-13.78-11.382-18.674c-12.522-12.581-29.639-15.987-45.77-9.125c-13.465 5.678-24.006 22.09-24.006 37.363l.317 5.293a3.2 3.2 0 0 1-2.407 3.287c-7.971 2.03-21.347 8.296-21.347 27.473c0 14.335 7.802 22.282 14.352 26.426c2.16 1.38 5.242 2.231 8.048 2.231m144 17.027l-5.645-.324c-1.513-.08-2.957.964-3.302 2.493a43 43 0 0 1-5.594 13.506a3.2 3.2 0 0 0 .58 4.1l4.214 3.758l-10.5 10.504l-3.747-4.203a3.19 3.19 0 0 0-4.096-.576a43 43 0 0 1-13.52 5.601a3.2 3.2 0 0 0-2.486 3.306l.32 5.617h-14.848l.32-5.623a3.2 3.2 0 0 0-2.486-3.306a43 43 0 0 1-13.514-5.604a3.19 3.19 0 0 0-4.096.576l-3.757 4.208l-10.496-10.5l4.208-3.751a3.2 3.2 0 0 0 .576-4.097a43 43 0 0 1-5.59-13.516c-.343-1.53-1.872-2.573-3.303-2.493l-5.638.324v-14.85l5.658.323c1.488.083 2.953-.964 3.302-2.49a43 43 0 0 1 5.6-13.487a3.21 3.21 0 0 0-.576-4.1l-4.237-3.78l10.5-10.5l3.779 4.234a3.2 3.2 0 0 0 4.092.573a43 43 0 0 1 13.492-5.582a3.2 3.2 0 0 0 2.486-3.306l-.32-5.668h14.848l-.32 5.674a3.196 3.196 0 0 0 2.486 3.303a43.1 43.1 0 0 1 13.485 5.588a3.2 3.2 0 0 0 4.093-.573l3.786-4.244l10.499 10.501l-4.227 3.77a3.21 3.21 0 0 0-.576 4.1a42.9 42.9 0 0 1 5.596 13.497c.346 1.523 1.796 2.573 3.303 2.49l5.651-.324zm3.018-21.434l-6.404.365a49.2 49.2 0 0 0-4.361-10.523l4.79-4.273a3.2 3.2 0 0 0 1.069-2.298a3.2 3.2 0 0 0-.938-2.352l-15.29-15.292c-.62-.624-1.506-.983-2.351-.935a3.2 3.2 0 0 0-2.298 1.066l-4.288 4.807a49.4 49.4 0 0 0-10.505-4.356l.364-6.426a3.2 3.2 0 0 0-.87-2.381a3.2 3.2 0 0 0-2.323-1.002h-21.626c-.88 0-1.721.361-2.323 1.002a3.2 3.2 0 0 0-.87 2.38l.364 6.42a49.2 49.2 0 0 0-10.512 4.354l-4.281-4.798a3.2 3.2 0 0 0-2.298-1.066c-.905-.041-1.731.31-2.352.935l-15.29 15.292a3.2 3.2 0 0 0-.937 2.352a3.2 3.2 0 0 0 1.069 2.298l4.8 4.282a49.3 49.3 0 0 0-4.365 10.514l-6.41-.365a3.2 3.2 0 0 0-2.38.867a3.2 3.2 0 0 0-1.002 2.327v21.629a3.2 3.2 0 0 0 1.002 2.327a3.26 3.26 0 0 0 2.38.867l6.388-.365a49 49 0 0 0 4.358 10.54l-4.771 4.253a3.2 3.2 0 0 0-1.069 2.298c-.026.88.314 1.734.938 2.355l15.29 15.292a3.26 3.26 0 0 0 2.351.938a3.2 3.2 0 0 0 2.298-1.07l4.256-4.774a49 49 0 0 0 10.534 4.375l-.361 6.375a3.2 3.2 0 0 0 .87 2.381a3.2 3.2 0 0 0 2.323 1.002h21.626a3.2 3.2 0 0 0 3.193-3.383l-.361-6.369a49.4 49.4 0 0 0 10.54-4.372l4.25 4.766a3.2 3.2 0 0 0 2.298 1.069c.854.038 1.731-.314 2.352-.938l15.29-15.292a3.195 3.195 0 0 0-.135-4.653l-4.778-4.26a49.4 49.4 0 0 0 4.362-10.533l6.394.365a3.24 3.24 0 0 0 2.38-.867a3.2 3.2 0 0 0 1.002-2.327v-21.629a3.2 3.2 0 0 0-1.002-2.327a3.2 3.2 0 0 0-2.38-.867"/></g>
<text x="560" y="227" text-anchor="middle" font-family="Segoe UI, Arial, sans-serif" font-size="12" font-weight="600" fill="#1a1a1a">Systems Manager</text>
<text x="560" y="242" text-anchor="middle" font-family="Segoe UI, Arial, sans-serif" font-size="12" font-weight="600" fill="#1a1a1a">Chroma/Kafka config</text>
<g transform="translate(698,168) scale(0.1719)"><defs><linearGradient id="iam_9_SVGYPnorcPn" x1="0%" x2="100%" y1="100%" y2="0%"><stop offset="0%" stop-color="#bd0816"/><stop offset="100%" stop-color="#ff5252"/></linearGradient></defs><path fill="url(#iam_9_SVGYPnorcPn)" d="M0 0h256v256H0z"/><path fill="#fff" d="M44.8 188.8h166.4V67.2H44.8zM217.6 64v128a3.2 3.2 0 0 1-3.2 3.2H41.6a3.2 3.2 0 0 1-3.2-3.2V64a3.2 3.2 0 0 1 3.2-3.2h172.8a3.2 3.2 0 0 1 3.2 3.2m-76.8 89.6h48v-6.4h-48zm41.6-19.2h16V128h-16zm-41.6 0h25.6V128h-25.6zm-48 12.8c0-1.763-1.434-3.2-3.2-3.2a3.203 3.203 0 0 0-3.2 3.2c0 1.763 1.434 3.2 3.2 3.2s3.2-1.437 3.2-3.2m6.4 0c0 4.166-2.685 7.683-6.4 9.011v6.989h-6.4v-6.992c-3.715-1.325-6.4-4.842-6.4-9.008c0-5.293 4.307-9.6 9.6-9.6s9.6 4.307 9.6 9.6m-38.4 25.578l57.58.022l.007-12.8H105.6v-6.4h12.787l.007-9.6H105.6v-6.4h12.797l.003-9.578L60.82 128zm9.6-51.175l38.4.016V99.2c.003-7.37-8.97-13.834-19.2-13.84h-.013c-10.214 0-19.174 6.467-19.18 13.84zm-16 54.371l.02-51.174a3.2 3.2 0 0 1 3.2-3.2l6.38.003l.006-22.403c.007-11.162 11.482-20.24 25.581-20.24h.013c14.118.006 25.603 9.088 25.6 20.24v22.422l6.4.004a3.2 3.2 0 0 1 3.2 3.2L124.78 176a3.2 3.2 0 0 1-3.2 3.2l-63.98-.026a3.2 3.2 0 0 1-3.2-3.2M192 115.2h6.4v-6.4H192zm-51.2 0H176v-6.4h-35.2z"/></g>
<text x="720" y="227" text-anchor="middle" font-family="Segoe UI, Arial, sans-serif" font-size="12" font-weight="600" fill="#1a1a1a">IAM Role</text>
<text x="720" y="242" text-anchor="middle" font-family="Segoe UI, Arial, sans-serif" font-size="12" font-weight="600" fill="#1a1a1a">GitHub Actions OIDC</text>
<g transform="translate(858,168) scale(0.1719)"><defs><linearGradient id="secrets_10_SVGYPnorcPn" x1="0%" x2="100%" y1="100%" y2="0%"><stop offset="0%" stop-color="#bd0816"/><stop offset="100%" stop-color="#ff5252"/></linearGradient></defs><path fill="url(#secrets_10_SVGYPnorcPn)" d="M0 0h256v256H0z"/><path fill="#fff" d="M124.032 138.752A3.973 3.973 0 0 0 128 142.72a3.97 3.97 0 0 0 3.968-3.968a3.97 3.97 0 0 0-3.968-3.968a3.973 3.973 0 0 0-3.968 3.968m-6.4 0c0-5.718 4.65-10.368 10.368-10.368s10.368 4.65 10.368 10.368c0 4.595-3.02 8.454-7.168 9.811v8.237h-6.4v-8.237c-4.147-1.357-7.168-5.216-7.168-9.811M156.8 121.6H99.2v41.6h57.6v-9.6h-9.6v-6.4h9.6v-9.6h-9.6v-6.4h9.6zm-48-6.4h38.397l.003-16c.003-8.371-9.142-15.994-19.187-16h-.01c-4.893 0-9.833 1.837-13.561 5.04c-3.584 3.078-5.642 7.075-5.642 10.963zm44.8-15.997l-.003 15.997H160a3.2 3.2 0 0 1 3.2 3.2v48a3.2 3.2 0 0 1-3.2 3.2H96a3.2 3.2 0 0 1-3.2-3.2v-48a3.2 3.2 0 0 1 3.2-3.2h6.4v-16c.003-5.754 2.87-11.517 7.869-15.814c4.873-4.186 11.334-6.586 17.734-6.586h.01c13.635.006 25.59 10.474 25.587 22.403m-92.138 76.954l5.188-3.75c-8.752-12.097-13.59-26.289-14.183-41.207H60.8v-6.4h-8.323c.637-14.829 5.469-28.938 14.173-40.966l-5.188-3.754c-9.497 13.13-14.745 28.534-15.385 44.72H38.4v6.4h7.667c.595 16.275 5.85 31.763 15.395 44.957m110.82 13.309c-12.061 8.73-26.208 13.561-41.082 14.179V195.2h-6.4v8.445c-14.874-.615-29.024-5.447-41.091-14.18l-3.747 5.185c13.158 9.526 28.608 14.774 44.838 15.395v7.555h6.4v-7.555c16.23-.621 31.674-5.869 44.832-15.395zM83.709 66.77c12.067-8.73 26.217-13.561 41.091-14.176V60.8h6.4v-8.205c14.874.615 29.02 5.447 41.082 14.176l3.75-5.184c-13.158-9.523-28.602-14.771-44.832-15.392V38.4h-6.4v7.795c-16.23.618-31.68 5.866-44.838 15.392zm126.208 58.03c-.64-16.186-5.888-31.59-15.389-44.72l-5.187 3.754c8.707 12.028 13.539 26.137 14.176 40.966H195.2v6.4h8.326c-.595 14.918-5.43 29.11-14.185 41.206l5.187 3.75c9.549-13.193 14.8-28.68 15.398-44.956h7.674v-6.4zm-29.482-44.595l25.088-25.088l-4.525-4.525L175.91 75.68zM75.558 176.032L50.47 201.12l4.525 4.525l25.088-25.088zM91.731 87.21L44.24 39.722l-4.525 4.524l47.491 47.488zm81.687 81.686l42.857 42.858l-4.525 4.524l-42.857-42.857z"/></g>
<text x="880" y="227" text-anchor="middle" font-family="Segoe UI, Arial, sans-serif" font-size="12" font-weight="600" fill="#1a1a1a">Secrets Manager</text>
<text x="880" y="242" text-anchor="middle" font-family="Segoe UI, Arial, sans-serif" font-size="12" font-weight="600" fill="#1a1a1a">finsight/prod</text>
<line x1="560" y1="145" x2="880" y2="145" stroke="#111111" stroke-width="1.3"/>
<line x1="560" y1="145" x2="560" y2="152" stroke="#111111" stroke-width="1.3" stroke-dasharray="5,4" marker-end="url(#arrowhead)"/>
<text x="560" y="135" text-anchor="middle" font-family="Segoe UI, Arial, sans-serif" font-size="9.5" font-weight="400" fill="#555555">Parameter Store</text>
<line x1="720" y1="145" x2="720" y2="152" stroke="#111111" stroke-width="1.3" stroke-dasharray="5,4" marker-end="url(#arrowhead)"/>
<text x="720" y="135" text-anchor="middle" font-family="Segoe UI, Arial, sans-serif" font-size="9.5" font-weight="400" fill="#555555">instance profile</text>
<line x1="880" y1="145" x2="880" y2="152" stroke="#111111" stroke-width="1.3" marker-end="url(#arrowhead)"/>
<text x="880" y="135" text-anchor="middle" font-family="Segoe UI, Arial, sans-serif" font-size="9.5" font-weight="400" fill="#555555">GetSecretValue</text>
<rect x="460" y="330" width="460" height="350" rx="14" fill="none" fill-opacity="1" stroke="#1D63ED" stroke-width="1.4" stroke-dasharray="7,5"/>
<text x="474" y="308" text-anchor="start" font-family="Segoe UI, Arial, sans-serif" font-size="11.5" font-weight="700" fill="#1D63ED">EC2 (t3.small) — backend + MCP + ChromaDB + Valkey</text>
<g transform="translate(666.0,350) scale(0.1875)"><defs><linearGradient id="ec2_12_SVGeyciVcvH" x1="0%" x2="100%" y1="100%" y2="0%"><stop offset="0%" stop-color="#c8511b"/><stop offset="100%" stop-color="#f90"/></linearGradient></defs><path fill="url(#ec2_12_SVGeyciVcvH)" d="M0 0h256v256H0z"/><path fill="#fff" d="M86.4 169.6h80v-80h-80zm86.4-80h12.8V96h-12.8v12.8h12.8v6.4h-12.8v9.6h12.8v6.4h-12.8V144h12.8v6.4h-12.8v12.8h12.8v6.4h-12.8v.435a5.97 5.97 0 0 1-5.965 5.965h-.435v12.8H160V176h-12.8v12.8h-6.4V176h-9.6v12.8h-6.4V176H112v12.8h-6.4V176H92.8v12.8h-6.4V176h-.435A5.97 5.97 0 0 1 80 170.035v-.435h-9.6v-6.4H80v-12.8h-9.6V144H80v-12.8h-9.6v-6.4H80v-9.6h-9.6v-6.4H80V96h-9.6v-6.4H80v-.435a5.97 5.97 0 0 1 5.965-5.965h.435V70.4h6.4v12.8h12.8V70.4h6.4v12.8h12.8V70.4h6.4v12.8h9.6V70.4h6.4v12.8H160V70.4h6.4v12.8h.435a5.97 5.97 0 0 1 5.965 5.965zm-41.6 121.203a.4.4 0 0 1-.397.397H45.197a.4.4 0 0 1-.397-.397v-85.606a.4.4 0 0 1 .397-.397H64v-6.4H45.197a6.805 6.805 0 0 0-6.797 6.797v85.606a6.805 6.805 0 0 0 6.797 6.797h85.606a6.805 6.805 0 0 0 6.797-6.797V195.2h-6.4zm86.4-165.606v85.606a6.805 6.805 0 0 1-6.797 6.797H192v-6.4h18.803a.4.4 0 0 0 .397-.397V45.197a.4.4 0 0 0-.397-.397h-85.606a.4.4 0 0 0-.397.397V64h-6.4V45.197a6.805 6.805 0 0 1 6.797-6.797h85.606a6.805 6.805 0 0 1 6.797 6.797"/></g>
<text x="690.0" y="413" text-anchor="middle" font-family="Segoe UI, Arial, sans-serif" font-size="12" font-weight="600" fill="#1a1a1a">EC2 instance</text>
<g transform="translate(668.0,470) scale(0.1719)"><path fill="#009688" d="M128 0C57.33 0 0 57.33 0 128s57.33 128 128 128s128-57.33 128-128S198.67 0 128 0m-6.67 230.605v-80.288H76.699l64.128-124.922v80.288h42.966z"/></g>
<text x="690.0" y="529" text-anchor="middle" font-family="Segoe UI, Arial, sans-serif" font-size="12" font-weight="600" fill="#1a1a1a">FastAPI backend :8000</text>
<text x="690.0" y="544" text-anchor="middle" font-family="Segoe UI, Arial, sans-serif" font-size="12" font-weight="600" fill="#1a1a1a">+ MCP server :8002/sse</text>
<g transform="translate(528,570) scale(0.1719)"><ellipse cx="170.667" cy="81.92" fill="#ffde2d" rx="85.333" ry="81.92"/><ellipse cx="85.333" cy="81.92" fill="#327eff" rx="85.333" ry="81.92"/><path fill="#ff6446" d="M170.667 81.92c0 45.243-38.206 81.92-85.334 81.92V81.92zm-85.334 0C85.333 36.677 123.538 0 170.667 0v81.92z"/></g>
<text x="550" y="629" text-anchor="middle" font-family="Segoe UI, Arial, sans-serif" font-size="12" font-weight="600" fill="#1a1a1a">ChromaDB</text>
<text x="550" y="644" text-anchor="middle" font-family="Segoe UI, Arial, sans-serif" font-size="12" font-weight="600" fill="#1a1a1a">vector store :8001</text>
<g transform="translate(808,570) scale(0.1562)"><g>
        <path d="M245.969687,168.943256 C232.308259,176.064479 161.536048,205.163388 146.468577,213.017633 C131.402107,220.873879 123.031844,220.797876 111.129473,215.107699 C99.2271007,209.417521 23.9127473,178.99557 10.3463234,172.511368 C3.56511141,169.270267 0,166.535181 0,163.9511 L0,138.075292 C0,138.075292 98.0490639,116.729625 113.878559,111.051447 C129.707053,105.372269 135.199225,105.167264 148.669646,110.101418 C162.141067,115.036572 242.686583,129.569026 256,134.445178 C256,134.445178 255.993999,157.5559 255.993999,159.954975 C255.996,162.513055 252.923904,165.319143 245.969687,168.943256" fill="#912626" />
        <path d="M245.964922,143.220067 C232.303935,150.33806 161.534003,179.438032 146.467017,187.292024 C131.401031,195.149018 123.031039,195.072017 111.12905,189.382023 C99.2260618,183.696028 23.9151336,153.269057 10.3491466,146.788063 C-3.21684053,140.303069 -3.50184026,135.840074 9.82514705,130.622079 C23.1511343,125.402084 98.0490629,96.0171117 113.880047,90.3381172 C129.708033,84.6611226 135.199028,84.4541228 148.669014,89.3901181 C162.140002,94.3241134 232.487935,122.325087 245.799922,127.200082 C259.11491,132.081078 259.625908,136.099073 245.964922,143.220067" fill="#C6302B" />
        <path d="M245.969687,127.074354 C232.308259,134.195577 161.536048,163.294486 146.468577,171.151732 C131.402107,179.004977 123.031844,178.928975 111.129473,173.238797 C99.2261007,167.551619 23.9127473,137.126668 10.3463234,130.642465 C3.56511141,127.401364 0,124.669279 0,122.085199 L0,96.2063895 C0,96.2063895 98.0490639,74.8617226 113.878559,69.182545 C129.707053,63.5043676 135.199225,63.2983612 148.669646,68.2325154 C162.141067,73.1676697 242.686583,87.6971237 256,92.5742761 C256,92.5742761 255.993999,115.684998 255.993999,118.087073 C255.996,120.644153 252.923904,123.450241 245.969687,127.074354" fill="#912626" />
        <path d="M245.964922,101.351164 C232.303935,108.471157 161.534003,137.569129 146.467017,145.426122 C131.401031,153.280114 123.031039,153.203114 111.12905,147.51312 C99.2260618,141.827125 23.9151336,111.401154 10.3491466,104.91916 C-3.21684053,98.4361664 -3.50184026,93.9721706 9.82514705,88.7521756 C23.1511343,83.5351806 98.0490629,54.1482087 113.880047,48.4702141 C129.708033,42.7922195 135.199028,42.5862197 148.669014,47.521215 C162.140002,52.4552102 232.487935,80.4541835 245.799922,85.3311789 C259.11491,90.2101742 259.625908,94.2301704 245.964922,101.350163 L245.964922,101.351164" fill="#C6302B" />
        <path d="M245.969687,83.6525661 C232.308259,90.7737887 161.536048,119.873698 146.468577,127.730944 C131.402107,135.585189 123.031844,135.508187 111.129473,129.818008 C99.2261007,124.130831 23.9127473,93.7048802 10.3463234,87.2226777 C3.56511141,83.9805764 0,81.2474909 0,78.6654102 L0,52.7856015 C0,52.7856015 98.0490639,31.4419345 113.878559,25.7637571 C129.707053,20.0845797 135.199225,19.8795733 148.669646,24.8137275 C162.141067,29.7488817 242.686583,44.2783357 256,49.1554881 C256,49.1554881 255.993999,72.2662103 255.993999,74.6672853 C255.996,77.2223652 252.923904,80.0284528 245.969687,83.6525661" fill="#912626" />
        <path d="M245.964922,57.929387 C232.303935,65.0493802 161.534003,94.1493524 146.467017,102.004345 C131.401031,109.858338 123.031039,109.781338 111.12905,104.093343 C99.2270617,98.4053484 23.9151336,67.9813773 10.3491466,61.4983836 C-3.21684053,55.0153898 -3.50184026,50.550394 9.82514705,45.331399 C23.1511343,40.113404 98.0490629,10.729432 113.880047,5.04943744 C129.708033,-0.629557148 135.199028,-0.833556953 148.669014,4.10143834 C162.140002,9.03643363 232.487935,37.0354069 245.799922,41.9124022 C259.11491,46.7883976 259.625908,50.8093938 245.964922,57.929387" fill="#C6302B" />
        <path d="M159.282977,32.7570853 L137.273922,35.0422326 L132.346419,46.8976124 L124.387597,33.667969 L98.973147,31.383814 L117.936992,24.5452403 L112.247442,14.0472558 L130.001736,20.9910078 L146.739969,15.5108217 L142.21631,26.3660155 L159.282977,32.7570853" fill="#FFFFFF" />
        <path d="M131.03169,90.2747287 L89.9546047,73.2378295 L148.815752,64.2034109 L131.03169,90.2747287" fill="#FFFFFF" />
        <path d="M74.0816124,39.3466047 C91.4568682,39.3466047 105.541829,44.8069457 105.541829,51.5413333 C105.541829,58.2767132 91.4568682,63.736062 74.0816124,63.736062 C56.7073488,63.736062 42.6213953,58.2767132 42.6213953,51.5413333 C42.6213953,44.8069457 56.7073488,39.3466047 74.0816124,39.3466047" fill="#FFFFFF" />
        <path d="M185.29476,35.9977674 L220.130605,49.7642171 L185.324527,63.5167752 L185.29476,35.9977674" fill="#621B1C" />
        <path d="M146.754853,51.2426667 L185.29476,35.9977674 L185.324527,63.5167752 L181.546047,64.9952248 L146.754853,51.2426667" fill="#9A2928" />
    </g>
</g>
<text x="830" y="629" text-anchor="middle" font-family="Segoe UI, Arial, sans-serif" font-size="12" font-weight="600" fill="#1a1a1a">Valkey</text>
<text x="830" y="644" text-anchor="middle" font-family="Segoe UI, Arial, sans-serif" font-size="12" font-weight="600" fill="#1a1a1a">cache (Redis-compat.) :6379</text>
<line x1="690.0" y1="398" x2="690.0" y2="470" stroke="#111111" stroke-width="1.3" marker-end="url(#arrowhead)"/>
<line x1="672.0" y1="514" x2="568" y2="570" stroke="#111111" stroke-width="1.3" marker-end="url(#arrowhead)"/>
<text x="550" y="560" text-anchor="middle" font-family="Segoe UI, Arial, sans-serif" font-size="9.5" font-weight="400" fill="#555555">vector queries</text>
<line x1="708.0" y1="514" x2="848" y2="570" stroke="#111111" stroke-width="1.3" marker-end="url(#arrowhead)"/>
<text x="830" y="560" text-anchor="middle" font-family="Segoe UI, Arial, sans-serif" font-size="9.5" font-weight="400" fill="#555555">cache get/set</text>
<rect x="960" y="330" width="340" height="200" rx="14" fill="none" fill-opacity="1" stroke="#1D63ED" stroke-width="1.4" stroke-dasharray="7,5"/>
<text x="974" y="308" text-anchor="start" font-family="Segoe UI, Arial, sans-serif" font-size="11.5" font-weight="700" fill="#1D63ED">EC2 (t3.medium) — Kafka + Flink</text>
<text x="974" y="322" text-anchor="start" font-family="Segoe UI, Arial, sans-serif" font-size="10" font-weight="400" fill="#5b7fd6">market hours only, 09:20–16:25 ET</text>
<g transform="translate(1108.0,380) scale(0.1065)"><path fill="#1a1919" d="M87.932 36.714c-4.55-4.571-10.896-7.394-17.951-7.394c-7.029 0-13.326 2.823-17.822 7.394h-.13c-4.535 4.55-7.358 10.9-7.358 17.93c0 7.055 2.823 13.352 7.359 17.875l.129.102c4.496 4.55 10.793 7.346 17.822 7.346c7.055 0 13.402-2.797 17.951-7.346L88 72.52c4.558-4.523 7.354-10.82 7.354-17.876c0-7.029-2.796-13.38-7.354-17.929zm-17.951 346.64a25.5 25.5 0 0 0 17.951-7.368l.067-.134c4.558-4.487 7.354-10.838 7.354-17.817c0-7.056-2.796-13.38-7.354-17.952h-.067c-4.55-4.625-10.896-7.42-17.951-7.42c-7.029 0-13.326 2.795-17.822 7.42h-.13c-4.535 4.572-7.358 10.896-7.358 17.952c0 6.98 2.823 13.33 7.359 17.817l.129.134a25.15 25.15 0 0 0 17.822 7.368m137.972-76.72c6.275-1.646 11.957-5.673 15.423-11.761l.468-.887c3.082-5.776 3.644-12.44 1.998-18.344c-1.659-6.324-5.735-11.917-11.81-15.418l-.352-.237c-5.918-3.242-12.662-3.947-18.857-2.274c-6.297 1.57-11.952 5.775-15.4 11.814c-3.492 5.981-4.223 12.88-2.55 19.231c1.725 6.244 5.761 11.89 11.796 15.418h.04c6.047 3.475 12.898 4.104 19.244 2.458M95.97 180.387c-6.654-6.637-15.824-10.794-25.988-10.794c-10.124 0-19.272 4.157-25.912 10.794c-6.61 6.614-10.686 15.76-10.686 25.898c0 10.165 4.076 19.339 10.686 26.029c6.64 6.582 15.788 10.712 25.912 10.712c10.164 0 19.334-4.13 25.988-10.712c6.623-6.69 10.7-15.864 10.7-26.029c0-10.137-4.077-19.284-10.7-25.898m-14.61-43.164c14.726 2.426 27.976 9.482 38.087 19.673h.08a72 72 0 0 1 4.625 5.147l25.284-14.629c-3.399-10.271-3.555-21.01-.826-31.072c3.609-13.487 12.35-25.56 25.453-33.137l.433-.26c12.96-7.345 27.696-8.861 41-5.253a54.52 54.52 0 0 1 33.186 25.48v.026c7.529 13.015 9.059 27.96 5.464 41.393c-3.581 13.478-12.363 25.631-25.453 33.155l-3.452 2.043h-.352c-12.109 5.771-25.426 6.663-37.655 3.447c-10.044-2.667-19.258-8.26-26.47-16.23l-25.243 14.585a69.7 69.7 0 0 1 4.509 24.694a70.7 70.7 0 0 1-4.51 24.824l25.244 14.53c7.212-8.072 16.426-13.562 26.47-16.229c13.469-3.684 28.405-2.114 41.46 5.49l.833.393v.053c12.613 7.627 21.078 19.441 24.619 32.767a54.43 54.43 0 0 1-5.464 41.344l-.454.914l-.054-.08c-7.564 12.573-19.48 21.091-32.638 24.695c-13.5 3.554-28.432 2.038-41.473-5.46v-.106c-13.103-7.578-21.844-19.678-25.453-33.133c-2.729-10.035-2.573-20.779.826-31.046l-25.284-14.584c-1.45 1.78-3.02 3.452-4.625 5.071l-.08.076c-10.11 10.142-23.361 17.198-38.088 19.548v29.217c10.494 2.194 19.9 7.448 27.273 14.816l.035.08c9.88 9.825 15.994 23.517 15.994 38.57c0 15.003-6.115 28.61-15.994 38.489l-.035.156c-9.946 9.879-23.598 15.993-38.65 15.993c-14.972 0-28.642-6.114-38.56-15.993h-.036v-.156c-9.893-9.879-16.02-23.486-16.02-38.49a54.26 54.26 0 0 1 16.02-38.569v-.08h.035c7.36-7.368 16.779-12.622 27.246-14.816v-29.217c-14.74-2.35-27.95-9.406-38.048-19.548l-.107-.076C7.89 243.053 0 225.624 0 206.285c0-19.284 7.89-36.714 20.511-49.389h.107c10.098-10.19 23.308-17.247 38.048-19.673v-29.087A55.34 55.34 0 0 1 31.42 93.293h-.035v-.08c-9.893-9.928-16.02-23.518-16.02-38.57c0-14.976 6.127-28.695 16.02-38.574l.035-.049C41.34 6.115 55.01 0 69.98 0c15.053 0 28.705 6.115 38.65 16.02v.05h.036c9.88 9.878 15.994 23.597 15.994 38.573c0 15.052-6.115 28.642-15.994 38.57l-.035.08c-7.373 7.319-16.779 12.568-27.273 14.843zm142.017-19.392l-.21-.312c-3.492-5.882-9.058-9.803-15.213-11.502c-6.346-1.672-13.197-.963-19.284 2.511h.04c-6.075 3.448-10.138 9.094-11.837 15.418a25.3 25.3 0 0 0 2.551 19.231l.116.16a25 25 0 0 0 15.284 11.57a24.83 24.83 0 0 0 19.21-2.48l.325-.156c5.905-3.528 9.838-9.094 11.484-15.208c1.673-6.298 1.008-13.197-2.466-19.232"/></g>
<text x="1130.0" y="439" text-anchor="middle" font-family="Segoe UI, Arial, sans-serif" font-size="12" font-weight="600" fill="#1a1a1a">Kafka + Flink (PyFlink)</text>
<text x="1130.0" y="454" text-anchor="middle" font-family="Segoe UI, Arial, sans-serif" font-size="12" font-weight="600" fill="#1a1a1a">+ 2 Finnhub producers</text>
<text x="1130.0" y="470" text-anchor="middle" font-family="Segoe UI, Arial, sans-serif" font-size="9.5" font-weight="400" fill="#7a7a7a">Zookeeper · Kafka-UI (ops)</text>
<g transform="translate(1108.0,570) scale(0.1719)"><defs>
        <linearGradient x1="0%" y1="100%" x2="100%" y2="0%" id="linearGradient1_1">
            <stop stop-color="#C8511B" offset="0%" />
            <stop stop-color="#FF9900" offset="100%" />
        </linearGradient>
    </defs>
    <g>
        <rect fill="url(#linearGradient1_1)" x="0" y="0" width="256" height="256" />
        <path d="M89.6241126,211.2 L49.8903277,211.2 L93.8354832,119.3472 L113.74728,160.3392 L89.6241126,211.2 Z M96.7029357,110.5696 C96.1640858,109.4656 95.0414813,108.7648 93.8162384,108.7648 L93.8066163,108.7648 C92.5717514,108.768 91.4491466,109.4752 90.9199187,110.5856 L41.9134208,213.0208 C41.4387197,214.0128 41.5060758,215.1776 42.0962451,216.1088 C42.6799994,217.0368 43.7063805,217.6 44.8065331,217.6 L91.654423,217.6 C92.8957027,217.6 94.0215149,216.8864 94.5539501,215.7696 L120.203859,161.6896 C120.617619,160.8128 120.614412,159.7984 120.187822,158.928 L96.7029357,110.5696 Z M207.985117,211.2 L168.507928,211.2 L105.173789,78.624 C104.644561,77.5104 103.515541,76.8 102.277469,76.8 L76.447943,76.8 L76.4768099,44.8 L127.103066,44.8 L190.145328,177.3728 C190.674556,178.4864 191.803575,179.2 193.041647,179.2 L207.985117,179.2 L207.985117,211.2 Z M211.192558,172.8 L195.071958,172.8 L132.029696,40.2272 C131.500468,39.1136 130.371449,38.4 129.130169,38.4 L73.272576,38.4 C71.5052758,38.4 70.0683421,39.8304 70.0651344,41.5968 L70.0298528,79.9968 C70.0298528,80.848 70.3634266,81.6608 70.969633,82.2624 C71.5694246,82.864 72.3841146,83.2 73.2372941,83.2 L100.253573,83.2 L163.59092,215.776 C164.123355,216.8896 165.24596,217.6 166.484032,217.6 L211.192558,217.6 C212.966274,217.6 214.4,216.1664 214.4,214.4 L214.4,176 C214.4,174.2336 212.966274,172.8 211.192558,172.8 L211.192558,172.8 Z" fill="#FFFFFF" />
    </g>
</g>
<text x="1130.0" y="629" text-anchor="middle" font-family="Segoe UI, Arial, sans-serif" font-size="12" font-weight="600" fill="#1a1a1a">finsight-ec2-scheduler</text>
<text x="1130.0" y="644" text-anchor="middle" font-family="Segoe UI, Arial, sans-serif" font-size="12" font-weight="600" fill="#1a1a1a">EventBridge cron — start/stop Flink EC2</text>
<line x1="1130.0" y1="570" x2="1130.0" y2="530" stroke="#111111" stroke-width="1.3" stroke-dasharray="5,4" marker-end="url(#arrowhead)"/>
<text x="1140.0" y="550.0" text-anchor="start" font-family="Segoe UI, Arial, sans-serif" font-size="9.5" font-weight="400" fill="#555555">start/stop</text>
<g transform="translate(1400,168) scale(0.1692)"><path d="M239.184 106.203a64.72 64.72 0 0 0-5.576-53.103C219.452 28.459 191 15.784 163.213 21.74A65.586 65.586 0 0 0 52.096 45.22a64.72 64.72 0 0 0-43.23 31.36c-14.31 24.602-11.061 55.634 8.033 76.74a64.67 64.67 0 0 0 5.525 53.102c14.174 24.65 42.644 37.324 70.446 31.36a64.72 64.72 0 0 0 48.754 21.744c28.481.025 53.714-18.361 62.414-45.481a64.77 64.77 0 0 0 43.229-31.36c14.137-24.558 10.875-55.423-8.083-76.483m-97.56 136.338a48.4 48.4 0 0 1-31.105-11.255l1.535-.87l51.67-29.825a8.6 8.6 0 0 0 4.247-7.367v-72.85l21.845 12.636c.218.111.37.32.409.563v60.367c-.056 26.818-21.783 48.545-48.601 48.601M37.158 197.93a48.35 48.35 0 0 1-5.781-32.589l1.534.921l51.722 29.826a8.34 8.34 0 0 0 8.441 0l63.181-36.425v25.221a.87.87 0 0 1-.358.665l-52.335 30.184c-23.257 13.398-52.97 5.431-66.404-17.803M23.549 85.38a48.5 48.5 0 0 1 25.58-21.333v61.39a8.29 8.29 0 0 0 4.195 7.316l62.874 36.272l-21.845 12.636a.82.82 0 0 1-.767 0L41.353 151.53c-23.211-13.454-31.171-43.144-17.804-66.405zm179.466 41.695l-63.08-36.63L161.73 77.86a.82.82 0 0 1 .768 0l52.233 30.184a48.6 48.6 0 0 1-7.316 87.635v-61.391a8.54 8.54 0 0 0-4.4-7.213m21.742-32.69l-1.535-.922l-51.619-30.081a8.39 8.39 0 0 0-8.492 0L99.98 99.808V74.587a.72.72 0 0 1 .307-.665l52.233-30.133a48.652 48.652 0 0 1 72.236 50.391zM88.061 139.097l-21.845-12.585a.87.87 0 0 1-.41-.614V65.685a48.652 48.652 0 0 1 79.757-37.346l-1.535.87l-51.67 29.825a8.6 8.6 0 0 0-4.246 7.367zm11.868-25.58L128.067 97.3l28.188 16.218v32.434l-28.086 16.218l-28.188-16.218z"/></g>
<text x="1420" y="227" text-anchor="middle" font-family="Segoe UI, Arial, sans-serif" font-size="12" font-weight="600" fill="#1a1a1a">OpenAI API</text>
<text x="1420" y="242" text-anchor="middle" font-family="Segoe UI, Arial, sans-serif" font-size="12" font-weight="600" fill="#1a1a1a">gpt-4o / gpt-4o-mini + embeddings</text>
<g transform="translate(1398,318) scale(1.8333)"><path fill="currentColor" d="M16,6L18.29,8.29L13.41,13.17L9.41,9.17L2,16.59L3.41,18L9.41,12L13.41,16L19.71,9.71L22,12V6H16Z"/></g>
<text x="1420" y="377" text-anchor="middle" font-family="Segoe UI, Arial, sans-serif" font-size="12" font-weight="600" fill="#1a1a1a">Market Data APIs</text>
<text x="1420" y="392" text-anchor="middle" font-family="Segoe UI, Arial, sans-serif" font-size="12" font-weight="600" fill="#1a1a1a">yfinance · FRED · Finnhub (REST+WS)</text>
<g transform="translate(1398,538) scale(0.3438)"><defs><radialGradient id="azure_18_SVGcqJNLdcL" cx="9.36" cy="10.57" r="7.07" fx="9.36" fy="10.57" gradientTransform="matrix(73.03125 0 0 37.1875 29.797 56.535)"><stop offset="0" stop-color="#f2f2f2"/><stop offset=".58" stop-color="#eee"/><stop offset="1" stop-color="#e6e6e6"/></radialGradient><linearGradient id="azure_18_SVGr4rzEbfJ" x1="2.59" x2="15.41" y1="10.16" y2="10.16" gradientTransform="scale(7.11111)" gradientUnits="userSpaceOnUse"><stop offset="0" stop-color="#005ba1"/><stop offset=".07" stop-color="#0060a9"/><stop offset=".36" stop-color="#0071c8"/><stop offset=".52" stop-color="#0078d4"/><stop offset=".64" stop-color="#0074cd"/><stop offset=".82" stop-color="#006abb"/><stop offset="1" stop-color="#005ba1"/></linearGradient></defs><path fill="url(#azure_18_SVGr4rzEbfJ)" d="M64 36.55c-25.172 0-45.582-7.109-45.582-16.495v87.89c0 9.032 20.055 16.356 44.941 16.5H64c25.172 0 45.582-7.113 45.582-16.5v-87.89c0 9.172-20.41 16.496-45.582 16.496Zm0 0"/><path fill="#e8e8e8" d="M109.582 20.055c0 9.172-20.41 16.496-45.582 16.496s-45.582-7.11-45.582-16.496c0-9.387 20.41-16.5 45.582-16.5s45.582 7.113 45.582 16.5"/><path fill="#50e6ff" d="M98.988 18.703c0 5.832-15.718 10.524-34.988 10.524s-34.988-4.692-34.988-10.524S44.73 8.25 64 8.25s34.988 4.691 34.988 10.453"/><path fill="#198ab3" d="M64 21.332a82.2 82.2 0 0 0-27.664 4.055A81.2 81.2 0 0 0 64 29.227a79.3 79.3 0 0 0 27.664-4.125A84.3 84.3 0 0 0 64 21.332m0 0"/><path fill="url(#azure_18_SVGcqJNLdcL)" d="M91.734 81.066V56.891h-6.402v29.367h17.496v-5.192ZM40.961 69.191a13 13 0 0 1-3.629-2.203a3.13 3.13 0 0 1-.852-2.277a2.42 2.42 0 0 1 1.067-2.133a4.85 4.85 0 0 1 2.988-.855a11.53 11.53 0 0 1 7.11 2.062v-6.113a18.2 18.2 0 0 0-7.11-1.137a11.67 11.67 0 0 0-7.754 2.414a7.68 7.68 0 0 0-2.984 6.332c0 3.625 2.273 6.469 7.11 8.602c1.57.668 3.05 1.527 4.41 2.562a2.98 2.98 0 0 1 1.066 2.274c0 .879-.426 1.699-1.137 2.207a5.8 5.8 0 0 1-3.203.781a11.8 11.8 0 0 1-7.75-2.988v6.613a15.4 15.4 0 0 0 7.61 1.707c2.98.176 5.933-.648 8.39-2.348a7.68 7.68 0 0 0 2.348-6.468a7.46 7.46 0 0 0-1.778-4.977a17.2 17.2 0 0 0-5.902-4.055m37.262 11.305a16.63 16.63 0 0 0 2.347-8.957A16.5 16.5 0 0 0 78.223 64a12.87 12.87 0 0 0-4.977-5.332a14.2 14.2 0 0 0-7.113-1.852a15 15 0 0 0-7.68 1.922A13.2 13.2 0 0 0 53.262 64a17.5 17.5 0 0 0-1.848 8.105a16.06 16.06 0 0 0 1.707 7.114a12.53 12.53 0 0 0 4.906 5.261a14.7 14.7 0 0 0 7.11 2.133l6.117 7.11h8.605l-8.75-7.82a12.74 12.74 0 0 0 7.114-5.407m-7.114-1.777a6.67 6.67 0 0 1-5.402 2.488a6.54 6.54 0 0 1-5.406-2.559a10.84 10.84 0 0 1-2.063-7.109a10.9 10.9 0 0 1 2.063-7.113a7.1 7.1 0 0 1 5.547-2.63a6.18 6.18 0 0 1 5.336 2.63a11.53 11.53 0 0 1 1.918 7.113a10.35 10.35 0 0 1-1.993 7.18m0 0"/></g>
<text x="1420" y="597" text-anchor="middle" font-family="Segoe UI, Arial, sans-serif" font-size="12" font-weight="600" fill="#1a1a1a">Azure SQL</text>
<text x="1420" y="612" text-anchor="middle" font-family="Segoe UI, Arial, sans-serif" font-size="12" font-weight="600" fill="#1a1a1a">relational store (auto-pauses, cross-cloud)</text>
<line x1="1300" y1="190" x2="1300" y2="700" stroke="#111111" stroke-width="1.3"/>
<line x1="1300" y1="190" x2="1398" y2="190" stroke="#111111" stroke-width="1.3" marker-end="url(#arrowhead)"/>
<text x="1315" y="178" text-anchor="start" font-family="Segoe UI, Arial, sans-serif" font-size="9.5" font-weight="400" fill="#555555">chat + embed</text>
<line x1="1300" y1="340" x2="1398" y2="340" stroke="#111111" stroke-width="1.3" marker-end="url(#arrowhead)"/>
<text x="1315" y="328" text-anchor="start" font-family="Segoe UI, Arial, sans-serif" font-size="9.5" font-weight="400" fill="#555555">quotes / news</text>
<line x1="1300" y1="560" x2="1398" y2="560" stroke="#111111" stroke-width="1.3" marker-end="url(#arrowhead)"/>
<text x="1315" y="548" text-anchor="start" font-family="Segoe UI, Arial, sans-serif" font-size="9.5" font-weight="400" fill="#555555">TDS / pyodbc</text>
<line x1="712.0" y1="492" x2="920" y2="545" stroke="#111111" stroke-width="1.3"/>
<line x1="920" y1="545" x2="1300" y2="545" stroke="#111111" stroke-width="1.3"/>
<line x1="1152.0" y1="402" x2="1300" y2="402" stroke="#111111" stroke-width="1.3"/>
<rect x="420" y="850" width="620" height="130" rx="14" fill="none" fill-opacity="1" stroke="#9a9a9a" stroke-width="1.4" stroke-dasharray="7,5"/>
<text x="434" y="840" text-anchor="start" font-family="Segoe UI, Arial, sans-serif" font-size="11" font-weight="700" fill="#9a9a9a">Local development only — not deployed to prod</text>
<g transform="translate(450,885) scale(0.0969)"><g>
        <path d="M87.9320692,36.714181 C83.382936,32.1427482 77.0364491,29.3196096 69.9808327,29.3196096 C62.9519759,29.3196096 56.6545483,32.1427482 52.1589343,36.714181 L52.0295962,36.714181 C47.4938428,41.2633143 44.6707042,47.614261 44.6707042,54.6431179 C44.6707042,61.6987343 47.4938428,67.9961618 52.0295962,72.5185355 L52.1589343,72.6211139 C56.6545483,77.1702472 62.9519759,79.9666261 69.9808327,79.9666261 C77.0364491,79.9666261 83.382936,77.1702472 87.9320692,72.6211139 L87.9989682,72.5185355 C92.5570213,67.9961618 95.3534002,61.6987343 95.3534002,54.6431179 C95.3534002,47.614261 92.5570213,41.2633143 87.9989682,36.714181 L87.9320692,36.714181 Z M69.9808327,383.353672 C77.0364491,383.353672 83.382936,380.481475 87.9320692,375.985861 L87.9989682,375.852063 C92.5570213,371.365368 95.3534002,365.014422 95.3534002,358.034624 C95.3534002,350.979008 92.5570213,344.654821 87.9989682,340.083388 L87.9320692,340.083388 C83.382936,335.458436 77.0364491,332.662057 69.9808327,332.662057 C62.9519759,332.662057 56.6545483,335.458436 52.1589343,340.083388 L52.0295962,340.083388 C47.4938428,344.654821 44.6707042,350.979008 44.6707042,358.034624 C44.6707042,365.014422 47.4938428,371.365368 52.0295962,375.852063 L52.1589343,375.985861 C56.6545483,380.481475 62.9519759,383.353672 69.9808327,383.353672 Z M207.953367,306.633879 C214.228495,304.988163 219.910452,300.960842 223.375821,294.873031 L223.844114,293.985504 C226.925929,288.209889 227.487881,281.546747 225.842165,275.641794 C224.183069,269.317607 220.106689,263.724849 214.032258,260.2238 L213.679923,259.987423 C207.76159,256.745051 201.018169,256.040381 194.82332,257.712857 C188.525893,259.282754 182.870696,263.488472 179.423166,269.527223 C175.931037,275.507996 175.199608,282.407514 176.872084,288.758461 C178.598078,295.002369 182.634319,300.648647 188.66861,304.176455 L188.70875,304.176455 C194.756421,307.650744 201.60688,308.279595 207.953367,306.633879 Z M95.9688712,180.386512 C89.3146489,173.750129 80.1450235,169.59347 69.9808327,169.59347 C59.8567813,169.59347 50.7094556,173.750129 44.0686131,180.386512 C37.4589901,187.000595 33.38261,196.147921 33.38261,206.285352 C33.38261,216.449543 37.4589901,225.623628 44.0686131,232.31353 C50.7094556,238.896393 59.8567813,243.026292 69.9808327,243.026292 C80.1450235,243.026292 89.3146489,238.896393 95.9688712,232.31353 C102.591874,225.623628 106.668254,216.449543 106.668254,206.285352 C106.668254,196.147921 102.591874,187.000595 95.9688712,180.386512 Z M81.3581257,137.223266 C96.0848295,139.64947 109.335295,146.705086 119.445967,156.896037 L119.526245,156.896037 C121.131822,158.514993 122.701719,160.267747 124.151198,162.042801 L149.434566,147.414216 C146.036096,137.142987 145.879999,126.403464 148.609478,116.341852 C152.217565,102.85501 160.959037,90.7819674 174.062325,83.2045386 L174.494938,82.9458624 C187.455508,75.6003502 202.191132,74.0839725 215.495117,77.6920595 C228.964119,81.2956866 241.11744,90.0772977 248.681489,103.171665 L248.681489,103.198425 C256.209859,116.212514 257.739616,131.157755 254.144909,144.591077 C250.563582,158.069 241.781971,170.222321 228.692063,177.746231 L225.240074,179.788881 L224.887739,179.788881 C212.779016,185.560036 199.461652,186.452023 187.232511,183.23641 C177.188739,180.569369 167.974514,174.976611 160.7628,167.006708 L135.519571,181.590694 C138.418528,189.270702 140.028564,197.55726 140.028564,206.285352 C140.028564,214.986684 138.418528,223.375821 135.519571,231.109347 L160.7628,245.639814 C167.974514,237.567333 177.188739,232.077153 187.232511,229.410112 C200.701514,225.726206 215.637835,227.296103 228.692063,234.900292 L229.526071,235.292766 L229.526071,235.346285 C242.138765,242.972773 250.603721,254.78714 254.144909,268.113424 C257.739616,281.466468 256.209859,296.416169 248.681489,309.457017 L248.226576,310.371304 L248.173057,310.291025 C240.609008,322.86358 228.692063,331.382055 215.535256,334.985683 C202.035034,338.54025 187.103173,337.023873 174.062325,329.526723 L174.062325,329.419684 C160.959037,321.842255 152.217565,309.742453 148.609478,296.286831 C145.879999,286.251978 146.036096,275.507996 149.434566,265.241226 L124.151198,250.65724 C122.701719,252.436754 121.131822,254.10923 119.526245,255.728186 L119.445967,255.804005 C109.335295,265.945896 96.0848295,273.001512 81.3581257,275.351898 L81.3581257,304.568929 C91.8523516,306.763217 101.258354,312.01702 108.630625,319.384832 L108.666305,319.46511 C118.54506,329.290346 124.65963,342.982345 124.65963,358.034624 C124.65963,373.037844 118.54506,386.645104 108.666305,396.523859 L108.630625,396.679957 C98.6849713,406.558712 85.0331117,412.673282 69.9808327,412.673282 C55.0088325,412.673282 41.3391332,406.558712 31.4202388,396.679957 L31.3845593,396.679957 L31.3845593,396.523859 C21.4924245,386.645104 15.3644745,373.037844 15.3644745,358.034624 C15.3644745,342.982345 21.4924245,329.290346 31.3845593,319.46511 L31.3845593,319.384832 L31.4202388,319.384832 C38.7791307,312.01702 48.1985125,306.763217 58.6659788,304.568929 L58.6659788,275.351898 C43.9258952,273.001512 30.7155691,265.945896 20.6182773,255.804005 L20.5112389,255.728186 C7.88962418,243.053052 0,225.623628 0,206.285352 C0,187.000595 7.88962418,169.571171 20.5112389,156.896037 L20.6182773,156.896037 C30.7155691,146.705086 43.9258952,139.64947 58.6659788,137.223266 L58.6659788,108.135573 C48.1985125,105.861006 38.7791307,100.611663 31.4202388,93.2929105 L31.3845593,93.2929105 L31.3845593,93.2126317 C21.4924245,83.2848174 15.3644745,69.6953969 15.3644745,54.6431179 C15.3644745,39.6666577 21.4924245,25.9478991 31.3845593,16.0691441 L31.4202388,16.0200848 C41.3391332,6.11457024 55.0088325,0 69.9808327,0 C85.0331117,0 98.6849713,6.11457024 108.630625,16.0200848 L108.630625,16.0691441 L108.666305,16.0691441 C118.54506,25.9478991 124.65963,39.6666577 124.65963,54.6431179 C124.65963,69.6953969 118.54506,83.2848174 108.666305,93.2126317 L108.630625,93.2929105 C101.258354,100.611663 91.8523516,105.861006 81.3581257,108.135573 L81.3581257,137.223266 Z M223.375821,117.83147 L223.166204,117.519275 C219.674075,111.636621 214.108077,107.716339 207.953367,106.017104 C201.60688,104.344628 194.756421,105.053758 188.66861,108.528047 L188.70875,108.528047 C182.634319,111.975576 178.571319,117.621853 176.872084,123.946041 C175.199608,130.216708 175.931037,137.142987 179.423166,143.177278 L179.539124,143.337836 C183.040173,149.291848 188.606171,153.28795 194.82332,154.906906 C201.071688,156.65966 208.033646,155.928231 214.032258,152.427182 L214.357833,152.271085 C220.262787,148.743276 224.196449,143.177278 225.842165,137.062708 C227.51464,130.76528 226.85011,123.865762 223.375821,117.83147 Z" fill="#1A1919" />
    </g>
</g>
<text x="530" y="905" text-anchor="start" font-family="Segoe UI, Arial, sans-serif" font-size="12" font-weight="600" fill="#1a1a1a">docker-compose-streaming.yml</text>
<text x="530" y="925" text-anchor="start" font-family="Segoe UI, Arial, sans-serif" font-size="10.5" font-weight="400" fill="#5b5b5b">Zookeeper · Kafka · Kafka-UI · Flink — ports 2181/9092/8080/8082</text>
<text x="530" y="945" text-anchor="start" font-family="Segoe UI, Arial, sans-serif" font-size="10" font-weight="400" fill="#7a7a7a">prod uses the separate aws/ec2-flink compose file on the dedicated EC2 above</text>
<line x1="380" y1="1050" x2="430" y2="1050" stroke="#111111" stroke-width="1.3" marker-end="url(#arrowhead)"/>
<text x="445" y="1054" text-anchor="start" font-family="Segoe UI, Arial, sans-serif" font-size="12" font-weight="400" fill="#2a2a2a">live request / data path</text>
<line x1="700" y1="1050" x2="750" y2="1050" stroke="#111111" stroke-width="1.3" stroke-dasharray="5,4" marker-end="url(#arrowhead)"/>
<text x="765" y="1054" text-anchor="start" font-family="Segoe UI, Arial, sans-serif" font-size="12" font-weight="400" fill="#2a2a2a">control-plane / manual deploy</text>
<rect x="1060" y="1040" width="16" height="16" rx="3" fill="none" fill-opacity="1" stroke="#FF9900" stroke-width="1.8" stroke-dasharray="7,5"/>
<text x="1084" y="1054" text-anchor="start" font-family="Segoe UI, Arial, sans-serif" font-size="12" font-weight="400" fill="#2a2a2a">AWS account boundary</text>
</svg>